/* XPM */
static char *_0151_18ac340ce9e3fffba3ca99cdae6743d9bf1d94f3024b03770222287543a52f9d[] = {
/* columns rows colors chars-per-pixel */
"46 55 256 2 ",
"   c #1B0000",
".  c #1A0A01",
"X  c #1F1000",
"o  c #250300",
"O  c #270A01",
"+  c #340900",
"@  c #2C1505",
"#  c #321501",
"$  c #341B01",
"%  c #391A05",
"&  c #351912",
"*  c #392306",
"=  c #3B2A11",
"-  c #441800",
";  c #6A1E00",
":  c #721F00",
">  c #452804",
",  c #5A2802",
"<  c #553505",
"1  c #4C3718",
"2  c #573819",
"3  c #4A2F11",
"4  c #6C2C01",
"5  c #682803",
"6  c #732400",
"7  c #742B01",
"8  c #7B2B01",
"9  c #792905",
"0  c #693804",
"q  c #763404",
"w  c #693816",
"e  c #753715",
"r  c #682A11",
"t  c #50352A",
"y  c #793C27",
"u  c #7E3B34",
"i  c #673D25",
"p  c #5C4603",
"a  c #5D4C18",
"s  c #694405",
"d  c #774807",
"f  c #6D5604",
"g  c #775609",
"h  c #684616",
"j  c #794817",
"k  c #785717",
"l  c #68501C",
"z  c #7C6617",
"x  c #78640F",
"c  c #5A4923",
"v  c #784626",
"b  c #76562A",
"n  c #785439",
"m  c #6C4C30",
"M  c #796432",
"N  c #725343",
"B  c #832C00",
"V  c #882900",
"C  c #932C00",
"Z  c #843301",
"A  c #8C3402",
"S  c #893A07",
"D  c #943502",
"F  c #9B3301",
"G  c #933B01",
"H  c #9B3B03",
"J  c #9B3B0B",
"K  c #94380B",
"L  c #8A3B16",
"P  c #943B12",
"I  c #A53C03",
"U  c #A73907",
"Y  c #B53D07",
"T  c #A43609",
"R  c #843E2A",
"E  c #881E00",
"W  c #C13F0D",
"Q  c #874604",
"!  c #96480A",
"~  c #885A07",
"^  c #88461B",
"/  c #954614",
"(  c #885A17",
")  c #975819",
"_  c #905E07",
"`  c #A8440A",
"'  c #B84608",
"]  c #AB4716",
"[  c #B74815",
"{  c #A35819",
"}  c #BD571B",
"|  c #896306",
" . c #976708",
".. c #896415",
"X. c #986815",
"o. c #997418",
"O. c #997108",
"+. c #A46C06",
"@. c #AC7401",
"#. c #A97809",
"$. c #B47A02",
"%. c #B27C0A",
"&. c #BD7E0C",
"*. c #B67606",
"=. c #A56817",
"-. c #A87915",
";. c #B67916",
":. c #B26A13",
">. c #83432C",
",. c #884927",
"<. c #8B5628",
"1. c #935B2C",
"2. c #995925",
"3. c #8A4C34",
"4. c #8B4C3C",
"5. c #844737",
"6. c #8B5437",
"7. c #96583A",
"8. c #974D30",
"9. c #A45825",
"0. c #B45624",
"q. c #A55D36",
"w. c #8A6727",
"e. c #986827",
"r. c #997826",
"t. c #866B39",
"y. c #976737",
"u. c #887737",
"i. c #A86828",
"p. c #A67825",
"a. c #B97927",
"s. c #A46838",
"d. c #AA7536",
"f. c #B77B37",
"g. c #BA6D35",
"h. c #C84B0D",
"j. c #C54B17",
"k. c #D84C17",
"l. c #CB541B",
"z. c #D45314",
"x. c #DB5414",
"c. c #DC551B",
"v. c #D6571B",
"b. c #D2510F",
"n. c #EB4E06",
"m. c #EB4D0B",
"M. c #E84C0D",
"N. c #F24D0A",
"B. c #F44D07",
"V. c #EB5106",
"C. c #E4520E",
"Z. c #EC520C",
"A. c #F3510B",
"S. c #EB4E13",
"D. c #E54D17",
"F. c #E55314",
"G. c #EB5312",
"H. c #E3551B",
"J. c #E9551B",
"K. c #F25215",
"L. c #F24E12",
"P. c #C37F17",
"I. c #C95525",
"U. c #D85827",
"Y. c #DC4F21",
"T. c #E65826",
"R. c #F05320",
"E. c #C77839",
"W. c #CF6A30",
"Q. c #E5612C",
"!. c #8C4B42",
"~. c #8C5243",
"^. c #885C49",
"/. c #935344",
"(. c #9B5C44",
"). c #93564B",
"_. c #995949",
"`. c #9A5D51",
"'. c #975951",
"]. c #914E42",
"[. c #A15E4B",
"{. c #A25C52",
"}. c #9A654B",
"|. c #967B46",
" X c #9C6356",
".X c #8B6F4A",
"XX c #A2634B",
"oX c #A76745",
"OX c #AC7346",
"+X c #B97947",
"@X c #A36454",
"#X c #A76856",
"$X c #B27F52",
"%X c #A96B60",
"&X c #BB830B",
"*X c #B8840A",
"=X c #BA8412",
"-X c #B88619",
";X c #AC8318",
":X c #9B8537",
">X c #B88825",
",X c #BA952D",
"<X c #AA8636",
"1X c #B8883A",
"2X c #B99637",
"3X c #AA8725",
"4X c #C38A0C",
"5X c #C6860B",
"6X c #C58716",
"7X c #CA9318",
"8X c #D4981A",
"9X c #CA900D",
"0X c #DBA21F",
"qX c #E3A418",
"wX c #E8B21E",
"eX c #C88B26",
"rX c #CA9628",
"tX c #D79928",
"yX c #C68B39",
"uX c #C89738",
"iX c #D59A37",
"pX c #D48E27",
"aX c #E19C37",
"sX c #DBA226",
"dX c #DCA739",
"fX c #CCA634",
"gX c #E6A728",
"hX c #E6A838",
"jX c #EBB138",
"kX c #F7B738",
"lX c #EFB129",
"zX c #978447",
"xX c #B98646",
"cX c #B69447",
"vX c #A9904F",
"bX c #BAA555",
"nX c #B38C67",
"mX c #B8996B",
"MX c #BFA864",
"NX c #C48649",
"BX c #C99447",
"VX c #D59A48",
"CX c #D69A56",
"ZX c #CB9154",
"AX c #E4994A",
"SX c #CEA84E",
"DX c #E3AA45",
"FX c #F6BB47",
"GX c #ECAF51",
"HX c #C49D6F",
"JX c #C7AA67",
"KX c #D1B26C",
"LX c #F5BB73",
"PX c #E8AF66",
"IX c #F8C150",
"UX c #FFCC7D",
/* pixels */
"H.k.k.j.Y T T P J J J ` [ [ h.l.c.x.C.G.G.A.V.B.V.V.Z.C.G.F.S.S.V.V.A.V.n.n.Z.Z.S.S.m.m.N.L.",
"k.k.W Y T T T P S A A G ` ! I ' v.x.x.G.G.Z.V.V.V.Z.V.C.Z.G.S.G.A.n.V.V.Z.n.M.G.Z.S.S.S.S.m.",
"W Y Y T F D P / P / P K ! H F I ' h.x.F.C.Z.V.V.V.V.V.C.Z.G.G.S.m.n.m.N.G.M.C.F.F.F.S.F.F.D.",
"Y T T C K S L ^ ^ 2.) ) { ! ! H ! ` b.v.F.Z.Z.Z.V.V.V.V.Z.m.Z.Z.N.N.m.S.Z.G.C.C.F.c.F.c.x.x.",
"T F J J P L ^ ,.,.2.e.9.9.9.{ { H ` ' h.x.C.Z.Z.Z.Z.V.V.V.n.n.V.M.L.L.M.Z.J.J.b.c.z.h.h.Y Y ",
"P P P / L L j v v <.1.1.2.9.9.g.{ ! ` ' v.C.F.M.A.V.Z.V.n.V.V.n.N.R.L.L.F.H.H.b.' I I F C C ",
"L L P ,.,.y v >.v <.6.1.1.1.s.NXE.] H ` l.z.x.G.Z.Z.Z.n.n.V.V.N.L.D.K.J.H.x.h.Y I H F G B A ",
"L L R ,.>.>.v v v v 6.1.1.<.q.NXZX{ Z I l.b.x.H.F.G.M.m.m.Z.K.K.R.D.H.T.U.h.U H ' ` ! / / / ",
"R 8.8.R 5.4.4.n 5.n 6.7.7.1.q.ZXZXNXS V U W Y.T.H.H.J.F.F.G.K.G.D.Y.T.T.Y Y T I.W.0.{ 9.1.2.",
"R R 5.R R 5.4.~.6.6.6.7.7.q.2.$XZXZX9.B C F j.U.U.T.H.H.H.T.R.H.Y.U.T.j.T C I.W.E.i.2.e.2.1.",
"R R R R u n ~.'.~.~.7.7.oXoX[.+X+XCXg.G E E T ' l.I.U.Q.Q.T.T.U.U.W.I.F C ! AXAXi.) ) <.<.<.",
"5.5.!.R u !.).`.`._.(.(.oXoXq.+XE.CXE.! A V V D F I ] [ I.l.l.I.[ } T 8 D W.PXAXi.) <.1.7.6.",
"5.4.!.!.!.~.'.{.#X@XXX7.oXoXs.E.NXCXNX{ G S Z q Z Z A A C D U [ D A B 8 ` PXPXyXf.i.s.s.y.7.",
"v !.~.).).).'.`.#X#X#X(.[.s.s.+XNXAXVX:.~ ! Q Q Q Q Q Q Z 8 B A 6 6 8 ! g.LXCXZX1Xd.s.s.7.7.",
"!.~.'. X'.'.'.`. X#X@X7.q.oXoX+XuXiXVX;. .X. .X.....) ..) Q S A 7 q Q i.PXPXCXVX1Xd.OXOXXX}.",
").).@X#X X).).).'.`.XX/.oX+XOXNXyXeXuX-.-.3X-.o.p.o..._ ( ) ) X.) ) ) f.LXCX1Xd.d.s.oXOXXX@X",
"XX{.{.{./._.`./.5. X'.!.[.OXd.a.>X;.%.#.#.;X;X;Xo.O.o.g ~ ~ X.X.=.-.X.1XUXNXp.xXs.OX#XXX@X%X",
"XX{.{.{.{.#X#X/.4. X'.4.7.2.i.a.-X;.%.%.#.*X=X#.;XO.O.| | g ....X. .p.BXLXBXd.xXd.OXOX@X{.#X",
"#XXX{.{._.{.XX8.4.4.5.y ,.2.{ ;.;.*.%.%.&.=X=X$.#.O.#. .| ~ | ~ ~ d p.cXSXxXs.s.OXoXXX}.`._.",
"#X#X{.{.].]./.(.3.6.>.e ^ { :.P.6X*.@.*.$.&X%.@.#.O.-.#. .X...~ ~ ~ p.1XxX+Xs.oXoXXX(.(._.7.",
"}.}. X X_.4.4.q.y >.v e Q ) :.*.P.P.*.*.@.*.*.@.@.+.-.-.+.=.X.~ ~ X._ ) d.s.s.#X#X[.[.(.7.3.",
"@X}.`.@X@X(.3.3.v e r e ) g.P.*.P.P.P.P.*.P.P.*.*.@.*.%.+.-. ._ d _ d d ) ,.[.[.@X(.[.].4.>.",
"}.#X X`. X_.5.v 3.y y 6.OXNXyXeXP.P.P.5X5X5X5X5X5X&X&.=X=.;.+._ ~ f d 0 ^ ,.[.[./.].].4.4.3.",
"<.#X#X/.7./.6.6.v i 6. Xy.<.p.rX6XP.&.&.*.5X9X8X8X6X6X-X%.eX+. .| 0 ~ 0 j v _.4.!.].].!.4.7.",
">.7.#X#X{.[.L w r n  Xm t - s <XuX@.@.@.5X4X&X7X8X*X&X7X%.;X+.O.| f g d 4 e 3.>.!.u u R ~.~.",
"e ,.[.oXq.8.e v n .XN & O o % cXuX%.@.@.&X4X5X9X8X4X&X=X*X-X+.O.| x ..~ j 0 y y u u u !.~.~.",
"9 e 8.[.s.,.j y.$X^.#   @ t   u.uX*X*X@.*X4X4X4X4X4X*X*X*X7X;X-.o...k g k 5 , r u u 5.!.!.).",
"9 9 L 8.q.2.e.CXJXl   o m .X# y.uXrX=X$.*X7X8X8X4X&X$.*X;X7X-X,X<Xk s d y.j w 5 e y 5.~.~.^.",
"L 6 : S 9.E.BXPXKXs O # 2 i # w.SXdXrX*X5X8XgXgX9X5X$.5X*X7XrXSXg @ o - k <.,.< e ,.6.6.6.~.",
"9.B ; 8 { iXDXIXGXs % o o o + w.SXFXdX7X6X8XjXgX8X5X&.8X4XtXjXSXb @   % h y.OX<.j ,.6.6.}.}.",
"9.B : 8 :.iXDXFXGXo.d < , 5 q i.uXDXdXfXtXgXkXgX8X9X5XsX8XjXIXBXm %   o < <.xXd.<.<.e.y.}..X",
"8.S 6 Z a.hXhXFXIXhXyXBXZXCXBXVX;.dXhXhXaXhXFXlXqXqX8XgX7XkXIXp.w > o o h y.d.d.e.e.e.7.6.,.",
"9.7 7 Q =.iXFXhXFXkXkXjXjXFXGXGXiXP.pXaXpXgXFXkXlXqXqXwXsXjXdXd - + + + , ( <XcXd.) ,.^ e 5 ",
"/ 4 7 Q X.>XeX5X0XqXkXkXgXgXtXDXiX6XeXAXAXaXhXjXlXwXwXwX8XsXdXQ 5 < , , 0 o.yXBXd.) ^ 4 ; 5 ",
"S 7 q ! X.;.-X*X8X8XkXkXlXdXpXhXGXVXBXVXBXuXVXDXhXsX0X8X=XtXtX:.NXNXf.p.-.yXiXyX1X) S ; : L ",
"S 8 q ! =.a.eX-X8X*XqX0XsXhX>XeX,XcXr.d e <.y.p.p.>X-X&X7XtXsXeXCXCXDXDXdXhXdXuXa.! Z V K 0.",
"P : 9 / =.p.;X=X*X*X7X4X-XfX;X3XzXvXh @ * l b a < ( 3X;XeXrXpXtXpXpXhXhXgXsXtXeXa.Q B K ] I.",
"K E 6 Q ) )  . .;XfXfX,X,X,XfXbXbXvXa @ O @ @ X > k p.-.-.&.&.8XgX0XqXlXgX8X7XeX:.G D T j.I.",
"P B 6 q ) _ ~  .;X3XfXfX3X,XSXJXMXMXM c @ . X * 2 u.cX3X-.;.-X8X8X5X9X8X8X7XrXeX:.D K Y I.I.",
"P B 7 S X...X.p.;X3X3X,X2X2XKXKXvXnXzXc = $ = 1 b zXJXcXuXdXeX-X*.@.*.$.*X=X;.=.Q Z J U j.Q.",
"] 8 5 4 j ..o.3X;Xx r.<X2XxXbXKXHXHXzXl 3 1 l M u.:XbXbXSXSXuXfX7X@.O.*X-.-.-.) Q Z A [ l.U.",
"9.A 6 4 d ..w.r.:Xx z <XcXvXvXHXKXmX.X< * a M M u.bXbXJXSXSXBX2X;X| | O.O.X...~ q 8 A ] l.v.",
"0./ 8 4 d ( w.w...f p z |.vXnXnXHXnX6.< < z u.M bXbXMXbXbXbX3Xo.| x ..:Xr.r.( d 4 7 D [ l.l.",
"I.] Z 5 4 ^ <...z z s < h %XnXnXnX}.h % * l u.zXzXvXzX:X:X;X..z f f x ..w.b d 4 5 8 J } v.v.",
"W.[ K : 5 q j k f M l $ O 1 n m i t t > > 3 m .Xu.zXzXM z x x z x z f f s 0 , 5 ; B ] l.v.v.",
"U.I.U V 6 4 0 h p b b c O   . @ o t N N 2 $ $ 1 M M M a p s f z z z k h s 0 0 q 8 ! } v.v.c.",
"T.Y.I.T B 4 0 s h b M m = X . . & t t t &     @ & * X @ > p f x f x f s s 4 4 B D ` l.v.H.H.",
"Y.T.U.[ D 7 5 0 w l M N c & . . . . & @ O         X $ * l z z f f k g 0 q 7 8 G I j.v.c.F.C.",
"Y.T.Q.U.Y C V 6 4 5 w b ^.N t t & % $ @ $ @ $ $ @ > h v l j d d j d q q q V F ` h.b.x.C.C.C.",
"R.R.R.Y.j.T C V 6 5 , w v m m m 3 3 * $ * * > * 2 h l v j 0 0 0 q 7 8 Z G I ' h.x.x.C.Z.C.Z.",
"R.R.D.D.c.[ T C B 6 ; 5 w y m n n n m m m m b b b j e e q q q 7 7 Z A K U ' h.b.x.G.G.G.Z.V.",
"L.D.D.D.x.z.' U H A 7 7 9 e e e v v y v v v j v j e 4 4 7 q Z Z K J ` ] [ h.b.F.G.Z.G.A.G.A.",
"N.N.n.Z.M.z.h.h.` ` H A B 6 9 5 r 7 r e q e q q 9 9 9 9 B C C F U ] [ j.z.x.J.G.m.N.N.N.N.N.",
"B.B.n.Z.Z.C.b.b.b.' ` ` J K A K 8 8 6 9 6 9 9 9 V K K J T U ] [ j.j.v.v.c.D.G.K.N.B.N.B.N.N.",
"B.B.A.A.V.C.C.F.z.l.h.[ [ ` U J J K S Z A K P J P P T Y 0.I.l.l.I.c.c.H.J.G.Z.A.A.B.B.B.A.A."
};
