/* XPM */
static char *_5504_2b3c8e07df1b969bc7d3e42c483a3a2bc1f73d5bf7922258365696153fd5c4f1[] = {
/* columns rows colors chars-per-pixel */
"57 66 241 2 ",
"   c #0C0101",
".  c #070000",
"X  c #130302",
"o  c #1C0907",
"O  c #1E150F",
"+  c #220C01",
"@  c #22090D",
"#  c #2C1A01",
"$  c #291506",
"%  c #360B14",
"&  c #2A1917",
"*  c #371A18",
"=  c #2D140F",
"-  c #392608",
";  c #39330E",
":  c #272416",
">  c #3B2717",
",  c #312E0F",
"<  c #301E22",
"1  c #2D2524",
"2  c #322424",
"3  c #392929",
"4  c #3C332B",
"5  c #352B33",
"6  c #3C3333",
"7  c #3C333A",
"8  c #432C18",
"9  c #483518",
"0  c #513C1B",
"q  c #44330D",
"w  c #431B23",
"e  c #462827",
"r  c #4A3629",
"t  c #543A27",
"y  c #482B32",
"u  c #443A3C",
"i  c #4A3C3B",
"p  c #473636",
"a  c #553839",
"s  c #532A30",
"d  c #532B2E",
"f  c #3D4029",
"g  c #3C421E",
"h  c #4B441A",
"j  c #54461A",
"k  c #62511F",
"l  c #5B442B",
"z  c #594626",
"x  c #585428",
"c  c #4A4539",
"v  c #574638",
"b  c #5A5539",
"n  c #4C4C27",
"m  c #64552A",
"M  c #624B37",
"N  c #655433",
"B  c #68583A",
"V  c #725C3C",
"C  c #725537",
"Z  c #64472B",
"A  c #6C6639",
"S  c #74653B",
"D  c #706A2E",
"F  c #5C6139",
"G  c #463C41",
"H  c #493E43",
"J  c #4C3D48",
"K  c #563D41",
"L  c #6A3F43",
"P  c #4C4344",
"I  c #4D4549",
"U  c #524445",
"Y  c #544A4C",
"T  c #5B4C4C",
"R  c #584746",
"E  c #5B5743",
"W  c #5A4D53",
"Q  c #5A4D5A",
"!  c #554953",
"~  c #5C5353",
"^  c #5D545B",
"/  c #5C5A59",
"(  c #634A4B",
")  c #675947",
"_  c #715B48",
"`  c #644C52",
"'  c #635455",
"]  c #635B55",
"[  c #62555D",
"{  c #645B5C",
"}  c #6B5C5D",
"|  c #6C5758",
" . c #725D5A",
".. c #714B4D",
"X. c #6C634C",
"o. c #6A6646",
"O. c #746342",
"+. c #74634B",
"@. c #796949",
"#. c #7C7547",
"$. c #6B6257",
"%. c #73655D",
"&. c #75695C",
"*. c #776758",
"=. c #7B7559",
"-. c #6F7549",
";. c #5E5661",
":. c #655B62",
">. c #695E64",
",. c #655764",
"<. c #745D63",
"1. c #6C6365",
"2. c #6D646A",
"3. c #6D686B",
"4. c #736564",
"5. c #756A65",
"6. c #7A6A64",
"7. c #74656B",
"8. c #746B6C",
"9. c #7A6C6D",
"0. c #7B6666",
"q. c #7A716D",
"w. c #77716B",
"e. c #6E6772",
"r. c #756C73",
"t. c #7A6D74",
"y. c #7A6D7A",
"u. c #766873",
"i. c #767174",
"p. c #7A7274",
"a. c #7C7279",
"s. c #77747A",
"d. c #83773B",
"f. c #826B48",
"g. c #85774A",
"h. c #816957",
"j. c #887757",
"k. c #927C59",
"l. c #877765",
"z. c #947C66",
"x. c #816E75",
"c. c #85787A",
"v. c #8B706E",
"b. c #8E636A",
"n. c #7D8053",
"m. c #94884D",
"M. c #94855B",
"N. c #9A9659",
"B. c #8B8554",
"V. c #A79A5B",
"C. c #ACA159",
"Z. c #8D8465",
"A. c #988967",
"S. c #9B946A",
"D. c #8C827C",
"F. c #928477",
"G. c #9D9674",
"H. c #A28D67",
"J. c #A4936C",
"K. c #A6976B",
"L. c #AD9B73",
"P. c #A99877",
"I. c #AD9975",
"U. c #9EA072",
"Y. c #AAA579",
"T. c #B5A67A",
"R. c #B7B87E",
"E. c #B0A86A",
"W. c #C7B973",
"Q. c #CAC274",
"!. c #7E7080",
"~. c #877B83",
"^. c #957F81",
"/. c #A07B82",
"(. c #8D8387",
"). c #94898B",
"_. c #968A92",
"`. c #9D9396",
"'. c #9B9189",
"]. c #A59A9A",
"[. c #AE9692",
"{. c #ADA682",
"}. c #BCAC83",
"|. c #B4AA84",
" X c #B6B389",
".X c #BAB48B",
"XX c #BCBA8D",
"oX c #B9B585",
"OX c #AEA298",
"+X c #BDB795",
"@X c #A59BA2",
"#X c #ABA2A8",
"$X c #B4AAAA",
"%X c #B6ACB4",
"&X c #BCB3B7",
"*X c #B9B0A9",
"=X c #C3B48B",
"-X c #C4BC8C",
";X c #C9BA8E",
":X c #C4B386",
">X c #CBBB92",
",X c #C9B693",
"<X c #D1BB98",
"1X c #C0AB87",
"2X c #C5BCBC",
"3X c #C7BAB7",
"4X c #C3B5AD",
"5X c #BEC189",
"6X c #C6C189",
"7X c #D1C296",
"8X c #D4C39B",
"9X c #D9CA9E",
"0X c #CEC095",
"qX c #DCCCA2",
"wX c #DAC8A4",
"eX c #DED1A3",
"rX c #CBC2BE",
"tX c #D2CABF",
"yX c #E1CEA6",
"uX c #E3CDA8",
"iX c #E2D3A6",
"pX c #E4D5AB",
"aX c #E8D7AD",
"sX c #E6D8AD",
"dX c #EAD9AE",
"fX c #E6D6B1",
"gX c #EBDAB3",
"hX c #E9D7B1",
"jX c #F0DEB8",
"kX c #BFBAC0",
"lX c #C6BBC3",
"zX c #CCC4C4",
"xX c #CEC6CA",
"cX c #D3CBCC",
"vX c #D2C9C9",
"bX c #D6D1CC",
"nX c #D5CCD2",
"mX c #D9CFD5",
"MX c #DAD2D4",
"NX c #DBD2D8",
"BX c #E1D5DA",
/* pixels */
"pXpXpXpXeXfXfXpXpXfXfXpXpXfXfXpXsXsXsXeXsXsXsXsXeXsXeXpXiXiXpXiXpXpXfXfXpXpXfXfXfXpXsXtXsXpXpXpXsXsXsXeXsXsXsXsXeX",
"pXpXpXpXpXpXeXfXfXeXfXeXpXeXpXpXsXeXeXsXsXeXsXsXsXeXpXpXpXiXpXpXpXpXfXfXfXfXfXpXpXfXsXsXsXpXpXsXeXsXsXsXsXsXsXsXsX",
"pXuXpXeXfXpXfXeXpXeXfXpXfXuXpXeXeXsXiXiXeXeXsXeXeXpXpXpXpXsXsXsXpXpXpXfXpXpXpXpXpXfXsXsXeXsXsXsXeXsXeXsXsXsXsXsXtX",
"pXpXpXpXeXpXpXfXpXpXpXpXeXpXpXfXsXiXsXsXsXsXeXsXsXpXpXpXpXsXiXiXpXpXfXeXpXfXfXeXsXfXsXsXsXeXsXsXsXsXeXsXtXsXsXsXsX",
"pXeXeXfXfXeXeXfXpXpXpXpXfXpXpXpXiXiXsXiXiXiXiXiXsXsXiXsXsXiXiXsXaXiXpXpXpXpXpXeXfXeXsXsXeXfXfXeXsXsXsXsXsXtXsXsXsX",
"fXfXpXpXpXfXpXfXfXpXpXfXpXfXpXpXsXsXiXiXsXiXsXsXsXeXsXsXsXsXsXiXaXaXiXaXpXpXfXfXfXsXsXsXsXeXfXfXsXsXsXsXsXsXsXsXsX",
"eXpXpXpXpXpXpXeXpXpXpXpXpXfXpXpXiXsXsXiXiXiXsXsXeXeXeXsXsXsXiXiXaXiXiXsXpXpXeXpXeXsXsXpXsXsXpXfXsXsXsXsXsXsXsXsXsX",
"fXpXeXfXeXfXuXfXfXeXpXpXpXeXpXpXiXiXiXiXiXiXiXsXeXeXeXpXeXiXiXsXaXaXaXsXsXsXpXpXfXeXfXpXsXsXpXfXsXsXeXsXsXsXsXsXsX",
"pXfXpXpXpXpXpXpXpXfXfXpXpXpXpXpXpXpXiXeXiXsXiX9X8X,X>X>X;X8XiXdXiXiXaXiXaXdXdXaXiXaXdXpXfXfXfXfXpXpXpXpXpXsXsXsXsX",
"pXfXeXpXpXpXpXpXpXpXpXpXpXpXpXpXiXdXsXiXiXsXiXeX8XW.T.L.T.1X8XuXaXdXgXjXgXjXgXdXiXaXpXgXgXgXfXfXgXfXpXpXdXdXpXpXeX",
"pXeXuXpXpXpXpXfXpXpXfXpXpXpXpXpXpXiXpXiXiXiXiXiXqX>X1XT.K.H.L.:X>X<XdXdXgXaXhXhXgXgXgXsXfXfXfXeXpXpXiXpXpXdXsXpXsX",
"fXfXpXpXpXpXpXpXpXpXpXpXfXpXpXpXiXiXiXpXsXiXiXdXyXuX<X1XK.g.@.k.J.W.9XaXhXhXhXgXjXjXgXgXfXwXwXwX,X,X.X;X9XpXdXdXsX",
"eXfXpXpXpXfXpXpXpXfXpXhXpXpXpXpXpXiXiXpXpXuXuXuXuXgXqX,X|.k.V Z V M.1X9XaXhXgXgXfXfXfXeXwX+XI.J.Z.M.M.A.T.9XiXsXsX",
"fXeXfXeXpXpXpXfXsXsXpXpXpXfXpXfXpXiXpXiXuX9X<X,X,X<X8X<X,XI.O.0 q C M.1XyXhXfXuXeX<X,XT.G.j.@.S O.B B g.K.6XeXpXsX",
"eXuXeXfXpXpXpXsXpXfXpXsXpXpXpXfXpXpXpXeXqX9X,X}.H.J.P.I.J.k.V 0 q q C M.T.<X8X<X,XI.j._ N N B B V m m S S.6XeXsXeX",
"pXpXeXpXpXpXpXhXsXpXfXpXsXfXfXpXpXpXpXuXqXwX<X}.J.g.O.O.@.O.C 0 q q 0 m h.H.I.I.F.f.l 9 r M _ @.O.V N g.U.5XeXsXeX",
"eXpXpXsXdXsXsXsXpXpXfXfXfXfXfXgXhXpXaXhXuXuXuX<X1XK.V q 0 Z l 9 > q 8 t N V N N N z 9 8 r )  .*.*._ N f.K.<XiXiXaX",
"yXqX9XiXpXsXsXsXsXfXsXhXfXfXfXfXpXuXfXgXgXhXhXuX<XT.d.9 # - - > - $ $ 8 l M l t 9 r 8 3 r ( %.&.h._ _ f.K.;XyXiXiX",
"9X<X;X7XeXpXiXsXpXpXdXdXfXfXfXfXhXpXpXgXhXhXhXaX9XI.V - + + $ 8 r = + 8 v M Z t > > - > r ( 0.6.h.O._ g.L.<XiXiXdX",
";X:X:X:X0X9XiXpXpXaXpXaXpXpXfXsXpXpXfXpXuXuXwX<XI.@.9 $ + + % s T e * 2 v _ ) v > $ $ = 3 ( 0.5.h.O._ j.T.9XiXaXdX",
"0X=X}.T.R.;X9XpXdXdXdXiXiXsXsXdXeXeXsXeX<X=XT.A.N 9 $ + o @ * a | R p y R | ( a * o X o % a  .b.l.*.@.k.}.qXdXaXiX",
"9X8X=XT.L.T.;X9XiXdXdXiXpXiXiXiXeXeXeX7X1XK.@.x 9 > $ + + @ p <.t.0. .( ` ` a & o X X X @ < K <.h.@.h.A.:XuXdXaXdX",
"iXqX<X:XI.I.T.:X8XeXsXsXiXsXsXeXeX6X:XT.N.g.x q n t t 3 2 y ` x.t.0.>.` K H 2 @ X X X X & 3 y (  .+.j.P.,XyXaXdXdX",
"qXqXqX>XT.K.K.L.:X7XeXiXsXdXiX9X7XE.V.N.B.A j 9 b ) _ ( ( ' }  .<.| T a i y 5 & o @ X o 3 y y a M _ z.P.<XuXdXgXdX",
"wX8X8X>X1XJ.H.H.L.W.<X<X9X8X=XT.C.N.m.N.N.#.h h b X.&.%. . . .| ) R R p * 4 c p < X o y J a y 3 e M h.J.1X<X<X<X<X",
",X,X0X>XW.L.z.k.k.H.W.1X=XoXJ.g.#.d.m.E.E.B.x j X.*.6.&.%.X._ +. ._ _ v e p R U 5 @ < U | [ K 2 = w Z h.z.z.z.k.k.",
"=X,X,X,X1XI.H.k.f.k.H.H.K.A.A j D S E.R.Y.g.n b &.=.6.&.+._ S S A.H.z.) c a T R y 1 H 7.x.9. .a > e t Z M .._ _ f.",
">X.X+X-X1XT.H.k.f.f.k.z.f.N q - k B.E.E.N.A x o.&.&.&.*.+.S S g.T.:XP.+.M b R v i u | x.x.x.x.<.( v a a M M .._ f.",
"-X+X=X1XT.P.H.k.V C f.C t q # ; D N.L.B.A N b $.5.&.$.+.O.S m.C.W.:XN.V B ) E U R W 8.~.u.y.x.9.0.0.0.%.&.h.0.h.b.",
"=X}.}.I.k.f.S V Z 0 q q # X # h #.S.M.A x b X.1.5.%.| +.#.m.C.W.W.E.g.m N o.) ' ~ ,.u.c.x.x.x.y.u.0.0.0.6.6.0.%.<.",
"}.{.J.k.C Z z Z 9 - - - $ + # q l +.N n N o.%.$.3.%.$.=.A.E.W.Q.W.m.D m V +.*.%.:.>.e.y.~.!.y.x.a.p.t.9.5.6.7.b.<.",
"|.A.@.N z z l t 8 8 0 t t 8 $ $ # ; , 9 ) &.5.$.] ] &.Z.T.Q.Q.W.C.d.k m O.=.w.w.7.y.y.y.y.e.e.c.y.t.t.9.9.9.4.<.<.",
"{.Z.x t t l t t t M %.l.%.i :   X X & c R X.w.E n g F N.C.Q.Q.C.d.C m O.*.6.q.p.s.s.s.s.r.8.w.w.r.y.r.e.7.t.0.<.} ",
"P.j.N z l l 8 * 3 v x.9.R 2 O X . o * i Y ~ E n , g D N.E.Q.C.D k 0 z _ | $.8.8.e.e.e.3.3.8.q.q.i.y.r.i.y.u.<.| ` ",
"G.j.B l l t - + = 3 i 6 &       X 4 T } ' v c 4 g g -.N.N.N.d.k q 0 Z M ) ] { ^ ;.;.;.:.1.5.w.p.t.s.t.y.u.<.[ ` ` ",
"A.-.Z t t 8 * = 2 * o . X     X 4 w.].'.5.P c c x -.n.d.D D j q 0 t M ) T ~ ~ W ^ ^ ^ ;.1.3.w.i.y.u.t.t.u.Q L L b.",
"#.x 9 ; 8 = * r ( p @ .     O 2 5.#XrX*X(.{ / $.-.-.F F x h h j l ) ) | $.%.:.:.1.:.1.>.2.7.9.t.a.u.u.9.,.L ` b./.",
"m 9 - # + + e  .c.x.W 1 . . 1 ] ].zXvXrX#Xn.=.-.-.F n n F b m o.*.6.6.0.q.q.8.i.i.t.s.e.r.r.r.r.a.t.y.<.` K ..x.[.",
"m h - # + $ L /.$X%X@X7.6 6 &.`.&XzXrX3X%X(.-.g g g g n F X.$.&.q.x.9.p.c.p.t.p.a.a.a.t.r.r.u.u.y.y.t.<.K K L b.v.",
"g.A h - + * <.OX3XnXmX*X(.(.OX*X2X&X&X*X#Xn.f O : , g F E $.1.3.7.i.r.r.c.p.8.p.p.a.a.y.t.u.y.a.u.t.t.7.` y y L b.",
"L.A.S ; + 8 v.4XNXNXBXNXxXrX2X2X&X&X#X@X_.1.4 O O : f c E / ;.;.>.e.r.7.2.t.a.p.c.p.a.t.y.y.y.y.r.a.y.7.,.L y w a ",
"T.U.g.9 $ r c.3XBXNXNXNXbXbXvXzXkX%X#X@X@Xs.P : : 1 f Y I / ! ! ^ ,.,.,.,.2.r.8.i.p.t.t.r.r.r.r.s.s.y.y.u.` K w a ",
"R.Y.M.B r t c.3XNXNXbXbXNXNXbXzXkX%X%XkXkX`.1.7 f G / / / ;.;.Q ! Q W Q ^ ^ 1.7.8.r.i.t.y.r.i.e.i.s.u.u.x.<.K w L ",
":X}.I.h.M ..z.3XbXbXbXxXbXbXxXzX%X%X&XlXxX%X~.Y c ~ 3.3.;.e.e.e.,.^ ^ ^ ^ ^ ^ :.1.3.r.p.i.r.i.i.3.e.u.y.u...K w s ",
",X+X|.A.@._ F.4XtXbXbXbXxXcXxX&X#X@X@X%X%X%X~.;.I ~ 3.i.3.u.u.e.>.>.>.>.,.,.[ ,.,.2.r.t.r.e.i.i.e.s.s.r.u.` s % % ",
",X=X}.P.j._ A.OXtXbXbXbXbXNXbXkX%X`.~.~._.`.~.[ I Y 1.w.8.y.u.y.y.y.t.t.7.2.>.2.3.e.r.r.i.8.i.3.s.s.e.e.b.,.y % % ",
",X}.}.I.z.+.l.OXtXtXbXxXxXbXnXzXkX#X@X_.^._.~.[ P I $.3.8.t.8.t.t.i.t.p.t.y.r.y.y.t.i.i.i.i.i.3.r.e.e.r.~.` s % % ",
",X.X+X|.A.@.l.{.3XtXbXxXkXxXxXxXbXxXlX%X`.^.c.[ c 7 ~ 1.3.8.8.i.9.q.9.8.8.r.r.u.t.y.r.s.i.i.i.i.e.y.y.y.b.L w % w ",
"+X X.X{.S.=.*.F.*XbXcX4X#X$XzXzXcXvXvXnX3X`.~.,.Y 7 I ! / ;.3.i.p.w.7.w.t.r.r.t.y.p.y.p.t.p.i.y.u.!.u.u.| a w % s ",
"XX X.X{.G.Z.-.j.OX3X2X].c.D.*XvXcXcXcXMXxX&X@X~.>.! G I I ! { { { $.8.8.8.i.i.r.p.y.t.y.a.a.a.a.y.!.y.<.( d w w L ",
" X XXX|.Y.Z.=.=.G.*X4X'.{ I c.*XzXcXcXBXNXnXlX@X_.e.Q I I P P 7 u Y / ' { 2.t.i.y.a.a.a.a.p.p.a.y.y.u.` a 8 d t f.",
"XXXXXX X|.G.Z.=.F.].*X'.c O I '.rXcXcXbXNXmXmXlX%X`.!.1.~ P 7 1 1 6 H c P ~ 2.i.a.i.a.t.r.t.r.t.u.y.<.R s 9 d t L ",
"XX5XXX X X{.F.=.l.F.].c.u o 6 D.*XxXcXcXnXnXmXxXxX&X`.~.!.! u 5 4 c c P P Y :.r.r.r.3.>.:./ 1.2.7.t.| r > 9 t t Z ",
"XXXX XXX X{.{.l.} &.D.D.^ 4 P c.$XxXnXMXmXmXNXmXmXxXkX#X~.;.P P Y ~ { / { { 1.2.1.:.^ I u P G I T ' c = $ 8 Z C f.",
" XXX XXX.X{.G.&.v P 4.D.c.q.i.`.*XcXnXmXNXmXmXmXNXmXlX%X_.^ u P ] 1.9.8.8.4.>./ W ! I G 7 7 6 1 2 3 : # > l f.M.z.",
"XXXXXX+X|.G.F.) r 2 U q.`.OXOX&XrXmXxXcXmXmXnXnXnXnXmXlX`.;.5 G ' 3.w.5.8.8.{ I G G I ! / ! P 5 O o $ r V k.L.=X1X",
" XXXXX XY.Z.+.b p p K ' c.].$X&XrXlXzXcXcXmXNXmXmXnXnXlX_.! 5 7 ~ 5.9.1.$.~ u u 7 Y ;.3.3.3.:.Y 1 & > b Z.|.=X;X<X",
" X X XY.A.=._ ' ~ E Y ` 1.9.).$XzXzXvXcXNXNXmXnXmXmXxX&X(.~ 6 u ~ 4.9.%./ P u u / / 3.e.i.i.3.$.u 4 r o.A.}.;X0X;X",
"|. X{.G.=.X.X.X.4. .{ W U P ] '.$X2XzXzXcXnXmXNXnXxXlX@Xi.W u u c ' ] ~ U u H W 3.3.i.e.i.n.!.3.~ c c X.G. X6X6X;X",
" X XP.B.o.) $.&.4.9.7.{ I u U 5.`.2XcXxXnXnXnXNXmXlX#X(.1./ ~ Y u i i u u i ^ 8.3.i.i.s.s.s.s.3.] E v X.S.oX5X5XW.",
" X|.G.=.) ) $.6.<.x.7.,.! U U W x.#X2XzXnXnXlXxXlX%X_.e.^ :.{ W u 4 2 4 u Y 2.p.e.n.!.s.n.s.n.3.$.E b -.S.oX5X5X;X",
" X{.A.o.B ) *.6.0.u.,.J J Y T U ~ i.'.$XxXNXxXlX%X_.u.;./ 2.8.~ p 1 & 5 Y %.8.q.e.!.!.s.!.s.!.w.$.E b &.S.R.5XR.;X",
" XY.Z.o.B ] %.4.9.7.! y H W ~ ~ ~ { 8.(.#XkX&X%X(.e.;.;.:.3.2.~ 3 O O u ] 9.p.9.n.!.s.e.!.!.i.w./ E F =.U.R.R.R.Q.",
"|.Y.=.B b _ %.0.u.<.! J J [ >.7.{ ~ ~ :.r.!.~.a.;.7 7 J ! ^ ^ u 2 o O p { q.p.9.e.s.e.!.!.n.w.3.$.E F n.U.R.5X5X6X",
"{.F.-.E E _ 4.7.u.,.J J ,.<.7.u.>.} [ ^ ^ ^ Q J 5 5 5 7 7 7 5 5 < 5 5 P } 8.8.8.8.p.p.i.p.w.r.3.$.b E n.U. X5X5X5X",
"Y.Z.F b ) $.6.9.7.[ Q J ;.,.u.u.u.>.1.>.,.:.Q P G 7 7 5 5 1 5 1 7 7 P ! { 8.4.2.r.p.i.i.i.i.8.w./ E F =.'.5X5X5X5X"
};
